<mxfile host="app.diagrams.net" modified="2023-07-30T15:30:36.292Z" agent="Mozilla/5.0 (Windows NT 10.0; Win64; x64) AppleWebKit/537.36 (KHTML, like Gecko) Chrome/115.0.0.0 Safari/537.36 Edg/115.0.1901.188" etag="C11N2XZVpAgxBzXtGoQ7" version="21.2.3" type="device">
  <diagram name="JadeSec - Manager" id="BUdOBoZl3lL6cbu5Dhfy">
    <mxGraphModel dx="2261" dy="756" grid="1" gridSize="10" guides="1" tooltips="1" connect="1" arrows="1" fold="1" page="1" pageScale="1" pageWidth="827" pageHeight="1169" math="0" shadow="0">
      <root>
        <mxCell id="0" />
        <mxCell id="1" parent="0" />
        <mxCell id="T8DOQe1yOZwCtf-8zqhm-18" value="" style="edgeStyle=orthogonalEdgeStyle;rounded=0;orthogonalLoop=1;jettySize=auto;html=1;" edge="1" parent="1" source="T8DOQe1yOZwCtf-8zqhm-17" target="T8DOQe1yOZwCtf-8zqhm-1">
          <mxGeometry relative="1" as="geometry" />
        </mxCell>
        <mxCell id="T8DOQe1yOZwCtf-8zqhm-17" value="" style="ellipse;whiteSpace=wrap;html=1;" vertex="1" parent="1">
          <mxGeometry x="-100" y="240" width="190" height="200" as="geometry" />
        </mxCell>
        <mxCell id="T8DOQe1yOZwCtf-8zqhm-49" style="edgeStyle=orthogonalEdgeStyle;rounded=0;orthogonalLoop=1;jettySize=auto;html=1;exitX=1;exitY=0.5;exitDx=0;exitDy=0;entryX=0;entryY=0.5;entryDx=0;entryDy=0;curved=1;" edge="1" parent="1" source="T8DOQe1yOZwCtf-8zqhm-1" target="T8DOQe1yOZwCtf-8zqhm-48">
          <mxGeometry relative="1" as="geometry" />
        </mxCell>
        <mxCell id="T8DOQe1yOZwCtf-8zqhm-1" value="Repositories" style="rounded=1;whiteSpace=wrap;html=1;fillColor=#fff2cc;strokeColor=#d6b656;fontStyle=1" vertex="1" parent="1">
          <mxGeometry x="160" y="320" width="120" height="40" as="geometry" />
        </mxCell>
        <mxCell id="T8DOQe1yOZwCtf-8zqhm-50" style="edgeStyle=orthogonalEdgeStyle;rounded=0;orthogonalLoop=1;jettySize=auto;html=1;exitX=1;exitY=0.5;exitDx=0;exitDy=0;entryX=0;entryY=0.5;entryDx=0;entryDy=0;" edge="1" parent="1" source="T8DOQe1yOZwCtf-8zqhm-2" target="T8DOQe1yOZwCtf-8zqhm-48">
          <mxGeometry relative="1" as="geometry" />
        </mxCell>
        <mxCell id="T8DOQe1yOZwCtf-8zqhm-2" value="Offensive" style="rounded=1;whiteSpace=wrap;html=1;fillColor=#fff2cc;strokeColor=#d6b656;fontStyle=1" vertex="1" parent="1">
          <mxGeometry x="160" y="540" width="120" height="40" as="geometry" />
        </mxCell>
        <mxCell id="T8DOQe1yOZwCtf-8zqhm-51" style="edgeStyle=orthogonalEdgeStyle;rounded=0;orthogonalLoop=1;jettySize=auto;html=1;exitX=1;exitY=0.5;exitDx=0;exitDy=0;entryX=0;entryY=0.5;entryDx=0;entryDy=0;curved=1;" edge="1" parent="1" source="T8DOQe1yOZwCtf-8zqhm-3" target="T8DOQe1yOZwCtf-8zqhm-48">
          <mxGeometry relative="1" as="geometry" />
        </mxCell>
        <mxCell id="T8DOQe1yOZwCtf-8zqhm-3" value="Cloud" style="rounded=1;whiteSpace=wrap;html=1;fillColor=#fff2cc;strokeColor=#d6b656;fontStyle=1" vertex="1" parent="1">
          <mxGeometry x="160" y="780" width="120" height="40" as="geometry" />
        </mxCell>
        <mxCell id="T8DOQe1yOZwCtf-8zqhm-9" value="" style="group" vertex="1" connectable="0" parent="1">
          <mxGeometry x="-17.5" y="275" width="60" height="75" as="geometry" />
        </mxCell>
        <mxCell id="T8DOQe1yOZwCtf-8zqhm-4" value="" style="dashed=0;outlineConnect=0;html=1;align=center;labelPosition=center;verticalLabelPosition=bottom;verticalAlign=top;shape=mxgraph.weblogos.github" vertex="1" parent="T8DOQe1yOZwCtf-8zqhm-9">
          <mxGeometry x="7.5" width="45" height="45" as="geometry" />
        </mxCell>
        <mxCell id="T8DOQe1yOZwCtf-8zqhm-8" value="Github" style="text;html=1;strokeColor=none;fillColor=none;align=center;verticalAlign=middle;whiteSpace=wrap;rounded=0;" vertex="1" parent="T8DOQe1yOZwCtf-8zqhm-9">
          <mxGeometry y="45" width="60" height="30" as="geometry" />
        </mxCell>
        <mxCell id="T8DOQe1yOZwCtf-8zqhm-11" value="" style="group" vertex="1" connectable="0" parent="1">
          <mxGeometry x="-17.5" y="350" width="60" height="85" as="geometry" />
        </mxCell>
        <mxCell id="T8DOQe1yOZwCtf-8zqhm-7" value="" style="shape=image;html=1;verticalAlign=top;verticalLabelPosition=bottom;labelBackgroundColor=#ffffff;imageAspect=0;aspect=fixed;image=https://cdn0.iconfinder.com/data/icons/phosphor-regular-vol-3/256/gitlab-logo-simple-128.png" vertex="1" parent="T8DOQe1yOZwCtf-8zqhm-11">
          <mxGeometry x="2" width="58" height="58" as="geometry" />
        </mxCell>
        <mxCell id="T8DOQe1yOZwCtf-8zqhm-10" value="Gitlab" style="text;html=1;strokeColor=none;fillColor=none;align=center;verticalAlign=middle;whiteSpace=wrap;rounded=0;" vertex="1" parent="T8DOQe1yOZwCtf-8zqhm-11">
          <mxGeometry y="55" width="60" height="30" as="geometry" />
        </mxCell>
        <mxCell id="T8DOQe1yOZwCtf-8zqhm-15" value="" style="group" vertex="1" connectable="0" parent="1">
          <mxGeometry x="-90" y="304" width="60" height="72" as="geometry" />
        </mxCell>
        <mxCell id="T8DOQe1yOZwCtf-8zqhm-13" value="" style="image;html=1;image=img/lib/atlassian/Bitbucket_Logo.svg;" vertex="1" parent="T8DOQe1yOZwCtf-8zqhm-15">
          <mxGeometry x="6" width="47" height="40" as="geometry" />
        </mxCell>
        <mxCell id="T8DOQe1yOZwCtf-8zqhm-14" value="Bitbucket" style="text;html=1;strokeColor=none;fillColor=none;align=center;verticalAlign=middle;whiteSpace=wrap;rounded=0;" vertex="1" parent="T8DOQe1yOZwCtf-8zqhm-15">
          <mxGeometry y="42" width="60" height="30" as="geometry" />
        </mxCell>
        <mxCell id="T8DOQe1yOZwCtf-8zqhm-20" value="" style="edgeStyle=orthogonalEdgeStyle;rounded=0;orthogonalLoop=1;jettySize=auto;html=1;" edge="1" parent="1" source="T8DOQe1yOZwCtf-8zqhm-19" target="T8DOQe1yOZwCtf-8zqhm-3">
          <mxGeometry relative="1" as="geometry" />
        </mxCell>
        <mxCell id="T8DOQe1yOZwCtf-8zqhm-19" value="" style="ellipse;whiteSpace=wrap;html=1;" vertex="1" parent="1">
          <mxGeometry x="-100" y="700" width="190" height="200" as="geometry" />
        </mxCell>
        <mxCell id="T8DOQe1yOZwCtf-8zqhm-27" value="" style="group" vertex="1" connectable="0" parent="1">
          <mxGeometry y="800" width="60" height="70" as="geometry" />
        </mxCell>
        <mxCell id="T8DOQe1yOZwCtf-8zqhm-25" value="" style="verticalLabelPosition=bottom;html=1;verticalAlign=top;align=center;strokeColor=none;fillColor=#00BEF2;shape=mxgraph.azure.cloud;" vertex="1" parent="T8DOQe1yOZwCtf-8zqhm-27">
          <mxGeometry x="5" width="50" height="32.5" as="geometry" />
        </mxCell>
        <mxCell id="T8DOQe1yOZwCtf-8zqhm-26" value="GCP" style="text;html=1;strokeColor=none;fillColor=none;align=center;verticalAlign=middle;whiteSpace=wrap;rounded=0;" vertex="1" parent="T8DOQe1yOZwCtf-8zqhm-27">
          <mxGeometry y="40" width="60" height="30" as="geometry" />
        </mxCell>
        <mxCell id="T8DOQe1yOZwCtf-8zqhm-28" value="" style="group" vertex="1" connectable="0" parent="1">
          <mxGeometry x="-70" y="800" width="60" height="70" as="geometry" />
        </mxCell>
        <mxCell id="T8DOQe1yOZwCtf-8zqhm-22" value="" style="verticalLabelPosition=bottom;html=1;verticalAlign=top;align=center;strokeColor=none;fillColor=#00BEF2;shape=mxgraph.azure.cloud;" vertex="1" parent="T8DOQe1yOZwCtf-8zqhm-28">
          <mxGeometry x="5" width="50" height="32.5" as="geometry" />
        </mxCell>
        <mxCell id="T8DOQe1yOZwCtf-8zqhm-24" value="Azure" style="text;html=1;strokeColor=none;fillColor=none;align=center;verticalAlign=middle;whiteSpace=wrap;rounded=0;" vertex="1" parent="T8DOQe1yOZwCtf-8zqhm-28">
          <mxGeometry y="40" width="60" height="30" as="geometry" />
        </mxCell>
        <mxCell id="T8DOQe1yOZwCtf-8zqhm-30" value="" style="group" vertex="1" connectable="0" parent="1">
          <mxGeometry x="-40" y="730" width="60" height="70" as="geometry" />
        </mxCell>
        <mxCell id="T8DOQe1yOZwCtf-8zqhm-31" value="" style="verticalLabelPosition=bottom;html=1;verticalAlign=top;align=center;strokeColor=none;fillColor=#00BEF2;shape=mxgraph.azure.cloud;" vertex="1" parent="T8DOQe1yOZwCtf-8zqhm-30">
          <mxGeometry x="5" width="50" height="32.5" as="geometry" />
        </mxCell>
        <mxCell id="T8DOQe1yOZwCtf-8zqhm-32" value="Aws" style="text;html=1;strokeColor=none;fillColor=none;align=center;verticalAlign=middle;whiteSpace=wrap;rounded=0;" vertex="1" parent="T8DOQe1yOZwCtf-8zqhm-30">
          <mxGeometry y="40" width="60" height="30" as="geometry" />
        </mxCell>
        <mxCell id="T8DOQe1yOZwCtf-8zqhm-43" value="" style="edgeStyle=orthogonalEdgeStyle;rounded=0;orthogonalLoop=1;jettySize=auto;html=1;" edge="1" parent="1" source="T8DOQe1yOZwCtf-8zqhm-33" target="T8DOQe1yOZwCtf-8zqhm-2">
          <mxGeometry relative="1" as="geometry" />
        </mxCell>
        <mxCell id="T8DOQe1yOZwCtf-8zqhm-33" value="" style="ellipse;whiteSpace=wrap;html=1;" vertex="1" parent="1">
          <mxGeometry x="-100" y="460" width="190" height="200" as="geometry" />
        </mxCell>
        <mxCell id="T8DOQe1yOZwCtf-8zqhm-47" value="" style="group" vertex="1" connectable="0" parent="1">
          <mxGeometry x="-35" y="520" width="60" height="80" as="geometry" />
        </mxCell>
        <mxCell id="T8DOQe1yOZwCtf-8zqhm-45" value="" style="image;aspect=fixed;perimeter=ellipsePerimeter;html=1;align=center;shadow=0;dashed=0;spacingTop=3;image=img/lib/active_directory/internet_globe.svg;" vertex="1" parent="T8DOQe1yOZwCtf-8zqhm-47">
          <mxGeometry x="5" width="50" height="50" as="geometry" />
        </mxCell>
        <mxCell id="T8DOQe1yOZwCtf-8zqhm-46" value="Internet/Intranet" style="text;html=1;strokeColor=none;fillColor=none;align=center;verticalAlign=middle;whiteSpace=wrap;rounded=0;" vertex="1" parent="T8DOQe1yOZwCtf-8zqhm-47">
          <mxGeometry y="50" width="60" height="30" as="geometry" />
        </mxCell>
        <mxCell id="T8DOQe1yOZwCtf-8zqhm-48" value="Vulnerability" style="rounded=1;whiteSpace=wrap;html=1;fontStyle=1" vertex="1" parent="1">
          <mxGeometry x="414" y="530" width="120" height="60" as="geometry" />
        </mxCell>
      </root>
    </mxGraphModel>
  </diagram>
</mxfile>
